<svg width="72" height="68" viewBox="0 0 72 68" fill="none" xmlns="http://www.w3.org/2000/svg">
<path d="M64 36C64 53.6731 49.6731 68 32 68C14.3269 68 0 53.6731 0 36C0 18.3269 14.3269 4 32 4C49.6731 4 64 18.3269 64 36ZM0.568159 36C0.568159 53.3593 14.6407 67.4318 32 67.4318C49.3593 67.4318 63.4318 53.3593 63.4318 36C63.4318 18.6407 49.3593 4.56816 32 4.56816C14.6407 4.56816 0.568159 18.6407 0.568159 36Z" fill="#A5ADF3"/>
<circle cx="32" cy="36" r="30" fill="#F6F7FB"/>
<path fill-rule="evenodd" clip-rule="evenodd" d="M27.7874 26.2142C27.1457 26.0217 26.5 26.5021 26.5 27.172V46H30V42.5C30 41.9477 30.4477 41.5 31 41.5H33C33.5523 41.5 34 41.9477 34 42.5V46H37.5V29.872C37.5 29.4304 37.2103 29.0411 36.7873 28.9142L27.7874 26.2142ZM30 32C29.7239 32 29.5 32.2239 29.5 32.5V33.5C29.5 33.7761 29.7239 34 30 34H31C31.2761 34 31.5 33.7761 31.5 33.5V32.5C31.5 32.2239 31.2761 32 31 32H30ZM29.5 35.5C29.5 35.2239 29.7239 35 30 35H31C31.2761 35 31.5 35.2239 31.5 35.5V36.5C31.5 36.7761 31.2761 37 31 37H30C29.7239 37 29.5 36.7761 29.5 36.5V35.5ZM30 38C29.7239 38 29.5 38.2239 29.5 38.5V39.5C29.5 39.7761 29.7239 40 30 40H31C31.2761 40 31.5 39.7761 31.5 39.5V38.5C31.5 38.2239 31.2761 38 31 38H30ZM32.5 32.5C32.5 32.2239 32.7239 32 33 32H34C34.2761 32 34.5 32.2239 34.5 32.5V33.5C34.5 33.7761 34.2761 34 34 34H33C32.7239 34 32.5 33.7761 32.5 33.5V32.5ZM33 35C32.7239 35 32.5 35.2239 32.5 35.5V36.5C32.5 36.7761 32.7239 37 33 37H34C34.2761 37 34.5 36.7761 34.5 36.5V35.5C34.5 35.2239 34.2761 35 34 35H33ZM32.5 38.5C32.5 38.2239 32.7239 38 33 38H34C34.2761 38 34.5 38.2239 34.5 38.5V39.5C34.5 39.7761 34.2761 40 34 40H33C32.7239 40 32.5 39.7761 32.5 39.5V38.5Z" fill="#CACEE1"/>
<path d="M25.5 46V29H24C23.4477 29 23 29.4477 23 30V45H22.5C22.2239 45 22 45.2239 22 45.5C22 45.7761 22.2239 46 22.5 46H25.5Z" fill="#CACEE1"/>
<path d="M41.5 46H38.5V32.7812L40.4961 33.9219C40.8077 34.1 41 34.4313 41 34.7902V45H41.5C41.7761 45 42 45.2239 42 45.5C42 45.7761 41.7761 46 41.5 46Z" fill="#CACEE1"/>
<path d="M33 46V42.5H31V46H33Z" fill="#CACEE1"/>
<g filter="url(#filter0_d_1_1019)">
<circle cx="54" cy="14" r="10" fill="white"/>
</g>
<g clip-path="url(#clip0_1_1019)">
<path d="M54.5595 17.8889C54.5595 18.2778 54.6317 18.65 54.7539 19H50.115C49.8203 19 49.5377 18.8829 49.3293 18.6746C49.121 18.4662 49.0039 18.1836 49.0039 17.8889V10.1111C49.0039 9.5 49.5039 9 50.115 9H57.8928C58.1875 9 58.4701 9.11706 58.6785 9.32544C58.8868 9.53381 59.0039 9.81643 59.0039 10.1111V14.75C58.6539 14.6278 58.2817 14.5556 57.8928 14.5556V10.1111H50.115V17.8889H54.5595ZM55.0928 14.1611L53.565 16.1278L52.4761 14.8167L50.9484 16.7778H54.7539C54.9761 16.1556 55.3761 15.6167 55.8928 15.2278L55.0928 14.1611ZM58.4483 17.3333V15.6667H57.3372V17.3333H55.6706V18.4444H57.3372V20.1111H58.4483V18.4444H60.115V17.3333H58.4483Z" fill="#5E6DFA"/>
</g>
<defs>
<filter id="filter0_d_1_1019" x="36" y="0" width="36" height="36" filterUnits="userSpaceOnUse" color-interpolation-filters="sRGB">
<feFlood flood-opacity="0" result="BackgroundImageFix"/>
<feColorMatrix in="SourceAlpha" type="matrix" values="0 0 0 0 0 0 0 0 0 0 0 0 0 0 0 0 0 0 127 0" result="hardAlpha"/>
<feOffset dy="4"/>
<feGaussianBlur stdDeviation="4"/>
<feComposite in2="hardAlpha" operator="out"/>
<feColorMatrix type="matrix" values="0 0 0 0 0.493247 0 0 0 0 0.484531 0 0 0 0 0.55528 0 0 0 0.1 0"/>
<feBlend mode="normal" in2="BackgroundImageFix" result="effect1_dropShadow_1_1019"/>
<feBlend mode="normal" in="SourceGraphic" in2="effect1_dropShadow_1_1019" result="shape"/>
</filter>
<clipPath id="clip0_1_1019">
<rect width="13.3333" height="13.3333" fill="white" transform="translate(47.3359 7.33301)"/>
</clipPath>
</defs>
</svg>
